<mxfile host="app.diagrams.net" modified="2024-05-04T02:50:54.258Z" agent="Mozilla/5.0 (Macintosh; Intel Mac OS X 10_15_7) AppleWebKit/537.36 (KHTML, like Gecko) Chrome/124.0.0.0 Safari/537.36" etag="u7FcIRLjuEYVBd-whCJV" version="24.3.1" type="device">
  <diagram name="Page-1" id="1uU3Hi1XB3b6-33bPCoY">
    <mxGraphModel dx="1224" dy="743" grid="1" gridSize="10" guides="1" tooltips="1" connect="1" arrows="1" fold="1" page="1" pageScale="1" pageWidth="850" pageHeight="1100" math="0" shadow="0">
      <root>
        <mxCell id="0" />
        <mxCell id="1" parent="0" />
        <mxCell id="o_ByZ_gwh0JT-pnpEAeL-1" value="" style="whiteSpace=wrap;html=1;aspect=fixed;" vertex="1" parent="1">
          <mxGeometry x="110" y="80" width="410" height="410" as="geometry" />
        </mxCell>
        <mxCell id="o_ByZ_gwh0JT-pnpEAeL-2" value="MongoDB" style="ellipse;whiteSpace=wrap;html=1;" vertex="1" parent="1">
          <mxGeometry x="370" y="120" width="120" height="80" as="geometry" />
        </mxCell>
        <mxCell id="o_ByZ_gwh0JT-pnpEAeL-11" style="edgeStyle=orthogonalEdgeStyle;rounded=0;orthogonalLoop=1;jettySize=auto;html=1;" edge="1" parent="1" source="o_ByZ_gwh0JT-pnpEAeL-3" target="o_ByZ_gwh0JT-pnpEAeL-2">
          <mxGeometry relative="1" as="geometry" />
        </mxCell>
        <mxCell id="o_ByZ_gwh0JT-pnpEAeL-3" value="REST API ENDPOINT" style="rounded=1;whiteSpace=wrap;html=1;" vertex="1" parent="1">
          <mxGeometry x="160" y="130" width="110" height="60" as="geometry" />
        </mxCell>
        <mxCell id="o_ByZ_gwh0JT-pnpEAeL-4" value="Data Collector" style="rounded=1;whiteSpace=wrap;html=1;" vertex="1" parent="1">
          <mxGeometry x="150" y="370" width="120" height="60" as="geometry" />
        </mxCell>
        <mxCell id="o_ByZ_gwh0JT-pnpEAeL-7" style="edgeStyle=orthogonalEdgeStyle;rounded=0;orthogonalLoop=1;jettySize=auto;html=1;" edge="1" parent="1" source="o_ByZ_gwh0JT-pnpEAeL-5" target="o_ByZ_gwh0JT-pnpEAeL-6">
          <mxGeometry relative="1" as="geometry" />
        </mxCell>
        <mxCell id="o_ByZ_gwh0JT-pnpEAeL-9" style="edgeStyle=orthogonalEdgeStyle;rounded=0;orthogonalLoop=1;jettySize=auto;html=1;entryX=0.5;entryY=1;entryDx=0;entryDy=0;" edge="1" parent="1" source="o_ByZ_gwh0JT-pnpEAeL-5" target="o_ByZ_gwh0JT-pnpEAeL-2">
          <mxGeometry relative="1" as="geometry" />
        </mxCell>
        <mxCell id="o_ByZ_gwh0JT-pnpEAeL-5" value="Data Analyzer" style="rounded=1;whiteSpace=wrap;html=1;" vertex="1" parent="1">
          <mxGeometry x="150" y="250" width="120" height="60" as="geometry" />
        </mxCell>
        <mxCell id="o_ByZ_gwh0JT-pnpEAeL-6" value="Edamam API" style="ellipse;shape=cloud;whiteSpace=wrap;html=1;" vertex="1" parent="1">
          <mxGeometry x="600" y="300" width="120" height="80" as="geometry" />
        </mxCell>
        <mxCell id="o_ByZ_gwh0JT-pnpEAeL-10" style="edgeStyle=orthogonalEdgeStyle;rounded=0;orthogonalLoop=1;jettySize=auto;html=1;entryX=0.5;entryY=1;entryDx=0;entryDy=0;entryPerimeter=0;" edge="1" parent="1" source="o_ByZ_gwh0JT-pnpEAeL-4" target="o_ByZ_gwh0JT-pnpEAeL-6">
          <mxGeometry relative="1" as="geometry" />
        </mxCell>
        <mxCell id="o_ByZ_gwh0JT-pnpEAeL-12" value="&lt;font style=&quot;font-size: 24px;&quot;&gt;Back End&lt;/font&gt;" style="text;html=1;align=center;verticalAlign=middle;resizable=0;points=[];autosize=1;strokeColor=none;fillColor=none;" vertex="1" parent="1">
          <mxGeometry x="240" y="25" width="130" height="40" as="geometry" />
        </mxCell>
      </root>
    </mxGraphModel>
  </diagram>
</mxfile>
